<?xml version="1.0" encoding="utf-8"?>
<!-- Generator: Adobe Illustrator 23.0.3, SVG Export Plug-In . SVG Version: 6.00 Build 0)  -->
<svg version="1.1" id="Layer_1" xmlns="http://www.w3.org/2000/svg" xmlns:xlink="http://www.w3.org/1999/xlink" x="0px" y="0px"
	 viewBox="0 0 1133.9 299.7" style="enable-background:new 0 0 1133.9 299.7;" xml:space="preserve">
<style type="text/css">
	.st0{opacity:0.5;}
	.st1{fill:#253588;}
	.st2{opacity:0.5;fill:#253588;}
</style>
<g class="st0">
	<path class="st1" d="M241.6,128.6c-11.6,0-21,9.4-21,21s9.4,21,21,21s21-9.4,21-21S253.2,128.6,241.6,128.6z"/>
	<path class="st1" d="M136.9,66.1c11.6,0,21-9.4,21-21s-9.4-21-21-21s-21,9.4-21,21S125.4,66.1,136.9,66.1z"/>
	<circle class="st1" cx="31.9" cy="150" r="21"/>
	<path class="st1" d="M137.3,233.6c-11.6,0-21,9.4-21,21s9.4,21,21,21s21-9.4,21-21S148.9,233.6,137.3,233.6z"/>
	<circle class="st1" cx="211.5" cy="75.4" r="13.1"/>
	<circle class="st1" cx="64.5" cy="74.5" r="13.1"/>
	<circle class="st1" cx="62.7" cy="223.6" r="13.1"/>
	<circle class="st1" cx="211" cy="223.3" r="13.1"/>
	<circle class="st1" cx="136" cy="148.3" r="13.1"/>
	<path class="st1" d="M98.7,166.3c-10.9,0.4-19.3,9.6-18.9,20.4c0.4,10.9,9.6,19.3,20.4,18.9c10.9-0.4,19.3-9.6,18.9-20.4
		C118.7,174.3,109.5,165.8,98.7,166.3z"/>
	<path class="st1" d="M99.8,131.5c10.9-0.4,19.3-9.6,18.9-20.4s-9.6-19.3-20.4-18.9c-10.9,0.4-19.3,9.6-18.9,20.4
		C79.8,123.5,88.9,132,99.8,131.5z"/>
	<path class="st1" d="M174,131.3c10.9-0.4,19.3-9.6,18.9-20.4c-0.4-10.9-9.6-19.3-20.4-18.9c-10.9,0.4-19.3,9.6-18.9,20.4
		C154,123.2,163.2,131.7,174,131.3z"/>
	<path class="st1" d="M173.3,166.6c-10.9,0.4-19.3,9.6-18.9,20.4c0.4,10.9,9.6,19.3,20.4,18.9c10.9-0.4,19.3-9.6,18.9-20.4
		C193.3,174.7,184.2,166.2,173.3,166.6z"/>
</g>
<path id="Fill-1_8_" class="st2" d="M957.4,166.4h42.1l-20.8-54.2L957.4,166.4z M1023.9,229.3l-12.8-32.6h-65.7l-13,32.6h-40.8
	l67.6-157.7h40.8l66.1,157.7L1023.9,229.3L1023.9,229.3z"/>
<polygon id="Fill-3_8_" class="st2" points="1082.1,71.6 1121.8,71.6 1121.8,229.3 1082.1,229.3 "/>
<path id="Fill-5_8_" class="st1" d="M800.6,194.4c-24.1,0-43.5-19.6-43.5-43.8s19.4-43.8,43.5-43.8s43.5,19.6,43.5,43.8
	S824.6,194.4,800.6,194.4 M800.6,67.9c-45.3,0-82.1,37-82.1,82.7s36.7,82.7,82.1,82.7c45.4,0,82.1-37,82.1-82.7
	S845.9,67.9,800.6,67.9"/>
<g id="Group-9_8_" transform="translate(0.000000, 0.490709)">
	<path id="Fill-7_8_" class="st1" d="M403.9,193.2c-20.9,0-40.2-19.5-40.2-43.4c0-24,18-43.4,40.2-43.4c11.8,0,24.1,5.5,32.9,14.2
		L466,94c-16-16.9-38.9-27.3-62.4-26.7c-42.4,1-80.5,37.1-80.5,82.7c0,45.8,38.1,83.3,80.5,82.8c24.4-0.2,47.3-11.9,63.1-29.9
		c-9-8.2-18.8-17.4-27.8-26.1C429.8,186.8,416.5,193.2,403.9,193.2"/>
</g>
<path id="Fill-10_8_" class="st1" d="M567.7,171.2c0,12-9.6,22.6-21.5,22.6s-21.5-10.6-21.5-22.6V71.6H485v99.6
	c0,34,27.5,61.7,61.2,61.7s61.2-27.7,61.2-61.7V71.6h-39.7V171.2z"/>
<g id="Group-14_8_" transform="translate(74.015748, 1.065512)">
	<g id="Clip-13_8_">
	</g>
	<path id="Fill-12_8_" class="st1" d="M568.4,109.7h15.1v69.5c0,5.6-2.7,10.9-7,14.2L548.3,214l23.2,31.7l29.4-21.8
		c14-10.2,22.1-26.4,22.1-43.8V70.5h-54.5L568.4,109.7L568.4,109.7z"/>
</g>
</svg>
