<?xml version="1.0" encoding="UTF-8"?>
<!DOCTYPE svg PUBLIC "-//W3C//DTD SVG 1.1//EN" "http://www.w3.org/Graphics/SVG/1.1/DTD/svg11.dtd">
<!-- Creator: CorelDRAW -->
<svg xmlns="http://www.w3.org/2000/svg" xml:space="preserve" width="0.983283in" height="0.310083in" style="shape-rendering:geometricPrecision; text-rendering:geometricPrecision; image-rendering:optimizeQuality; fill-rule:evenodd; clip-rule:evenodd"
viewBox="0 0 0.813639 0.256585"
 xmlns:xlink="http://www.w3.org/1999/xlink">
 <defs>
  <style type="text/css">
   <![CDATA[
    .fil0 {fill:#010101}
    .fil1 {fill:#037576}
    .fil2 {fill:#BDBEC0}
    .fil3 {fill:#EB2629}
   ]]>
  </style>
 </defs>
 <g id="Layer_x0020_1">
  <metadata id="CorelCorpID_0Corel-Layer"/>
  <g id="_89919360">
   <g>
    <path id="_89922624" class="fil0" d="M0.0466251 0.116732c0,0.00760361 -0.00291244,0.0131614 -0.0087308,0.0167384 -0.00474004,0.00293198 -0.0111546,0.00441427 -0.0192143,0.00441427 -0.00759384,0 -0.0138259,-0.00130962 -0.01868,-0.00395492l0.00210451 -0.0106887c0.0052678,0.0027919 0.0103434,0.00422206 0.015204,0.00422206 0.00318935,0 0.00603337,-0.000534273 0.0084995,-0.00157676 0.00324147,-0.00135197 0.00486058,-0.00348255 0.00486058,-0.00633634 0,-0.00298085 -0.00169729,-0.00536879 -0.00508536,-0.00712798 -0.000853533,-0.000439798 -0.00382787,-0.0014497 -0.00894581,-0.00304275 -0.0053525,-0.00165494 -0.00919666,-0.00403311 -0.0115422,-0.00711169 -0.00248241,-0.00321541 -0.00370733,-0.00755149 -0.00370733,-0.0130343 0,-0.00633634 0.00250848,-0.011135 0.00750914,-0.0144188 0.00423183,-0.00275932 0.00967881,-0.00414713 0.0163507,-0.00414713 0.00687713,0 0.0127835,0.00125098 0.0176701,0.00374968l-0.00148228 0.00967881c-0.00383438,-0.00211103 -0.0089393,-0.00315351 -0.0153082,-0.00315351 -0.00273326,0 -0.00506908,0.000423509 -0.00700744,0.00127704 -0.00273326,0.00117279 -0.00408523,0.00289615 -0.00408523,0.00518961 0,0.00257689 0.00161911,0.00454132 0.00485406,0.00589655 0.000215012,0.000110764 0.00294827,0.000948008 0.00816395,0.0024987 0.00625816,0.00187973 0.0107571,0.00417319 0.0134806,0.00691297 0.00340436,0.00336852 0.00509188,0.00804015 0.00509188,0.0140149z"/>
    <path id="_89922696" class="fil0" d="M0.0945174 0.133858c-0.00394841,0.0020589 -0.00922272,0.00310465 -0.0158425,0.00310465 -0.00638847,0 -0.011249,-0.00213709 -0.0145915,-0.00642105 -0.00309487,-0.00391257 -0.00464557,-0.00912825 -0.00464557,-0.0156373l0 -0.0317208 -0.00850927 0 0 -0.0113696 0.00851579 0 0 -0.00816069 0.0180154 -0.0108353 0 0.018996 0.0134187 0 0 0.0113696 -0.013422 0 0 0.0328219c0,0.00330989 0.0005245,0.00568154 0.00159305,0.00711169 0.0012575,0.00173964 0.00345648,0.00261272 0.00663606,0.00261272 0.00283425,0 0.0049127,-0.000302972 0.00624187,-0.000948008l0.00258992 0.00907612z"/>
    <path id="_89922768" class="fil0" d="M0.155773 0.136409l-0.016064 0 -0.00110438 -0.00851579c-0.00161259,0.00298085 -0.00427418,0.00534273 -0.00796523,0.00701722 -0.00327405,0.00149857 -0.00676637,0.00225111 -0.0104802,0.00225111 -0.0144026,0 -0.021599,-0.00742118 -0.021599,-0.022257 0,-0.00707586 0.00240423,-0.0126531 0.00719639,-0.0167905 0.00454132,-0.00391257 0.0104118,-0.00586071 0.017618,-0.00586071 0.00628422,0 0.0112914,0.00184389 0.0150052,0.00552516l0 -0.00855162c0,-0.0052678 -0.00386045,-0.0079131 -0.0115944,-0.0079131 -0.00682827,0 -0.0127737,0.00134546 -0.017833,0.00403311l-0.00161911 -0.0101544c0.00755149,-0.00317957 0.0155167,-0.00475959 0.0239185,-0.00475959 0.0163507,0 0.0245212,0.00788704 0.0245212,0.0236448l0 0.0423313 0 0zm-0.0173997 -0.022547c0,-0.00850601 -0.00358679,-0.0127574 -0.0107669,-0.0127574 -0.00733648,0 -0.0109884,0.00428396 -0.0109884,0.0128616 0,0.0078512 0.00365521,0.0117735 0.0109884,0.0117735 0.00717033,-3.25776e-006 0.0107669,-0.00395818 0.0107669,-0.0118778z"/>
    <path id="_89922840" class="fil0" d="M0.209181 0.0874057c-0.00501695,0 -0.00922272,0.00143016 -0.0126434,0.00431002 -0.00439798,0.0036715 -0.00657742,0.00894907 -0.00657742,0.015862l0 0.0288312 -0.017833 0 0 -0.0645851 0.0173932 0 0 0.0134383c0.000889369,-0.00389628 0.00276584,-0.00730064 0.00568805,-0.0101707 0.00317306,-0.00309487 0.00666212,-0.00464557 0.01049,-0.00464557 0.00155069,0 0.00272349,0.000110764 0.00348255,0.000329034l0 0.0166309 0 0z"/>
    <path id="_89922912" class="fil0" d="M0.256624 0.133858c-0.00393863,0.0020589 -0.00922272,0.00310465 -0.0158523,0.00310465 -0.00636241,0 -0.0112328,-0.00213709 -0.0145752,-0.00642105 -0.00309487,-0.00391257 -0.00464557,-0.00912825 -0.00464557,-0.0156373l0 -0.0317208 -0.00850927 0 0 -0.0113696 0.00850927 0 0 -0.00816069 0.0179991 -0.0108353 0 0.018996 0.0134187 0 0 0.0113696 -0.013422 0 0 0.0328219c0,0.00330989 0.000544046,0.00568154 0.00161259,0.00711169 0.0012575,0.00173964 0.00345648,0.00261272 0.00661,0.00261272 0.00286031,0 0.00492248,-0.000302972 0.00624839,-0.000948008l0.00260621 0.00907612z"/>
    <path id="_89922984" class="fil1" d="M0.320632 0.136409l-0.0164028 0 -0.00109461 -0.0100665c-0.00571411,0.0076199 -0.0131451,0.011438 -0.0223254,0.011438 -0.0107734,0 -0.016178,-0.00693903 -0.016178,-0.0208073l0 -0.045133 0.0178916 0 0 0.043426c0,0.00580859 0.00244006,0.00872428 0.00735277,0.00872428 0.00567176,0 0.00997201,-0.00204262 0.0129301,-0.00612133l0 -0.0460289 0.0178265 0 0 0.0645688z"/>
    <path id="_89923056" class="fil1" d="M0.396154 0.10488c0,0.00867868 -0.00161911,0.0159793 -0.00487035,0.0219019 -0.00400705,0.00733648 -0.00990359,0.0109884 -0.0176799,0.0109884 -0.00804993,0 -0.0142755,-0.0032317 -0.0186702,-0.00977328l0 0.0276356 -0.0178297 -3.25776e-006 0 -0.0838059 0.0164191 0 0.00110438 0.00857768c0.0018276,-0.00283425 0.00441427,-0.00510165 0.0077046,-0.00683478 0.0032936,-0.00173964 0.00664583,-0.00261272 0.010086,-0.00261272 0.0158067,-9.77328e-006 0.023736,0.0113175 0.023736,0.0339263zm-0.0186865 -0.000224786c0,-0.00635263 -0.000456087,-0.0108516 -0.00137152,-0.0134546 -0.00165494,-0.00467163 -0.00504301,-0.00699767 -0.0101382,-0.00699767 -0.00483452,0 -0.00806947,0.00237165 -0.00971464,0.00711169 -0.000990359,0.00284403 -0.00148228,0.00727458 -0.00148228,0.0133438 0,0.00603337 0.000491922,0.0104639 0.00148228,0.0132917 0.00164517,0.00475959 0.00488013,0.00711821 0.00971464,0.00711821 0.00509514,0 0.00847344,-0.00233581 0.0101382,-0.00699115 0.000915431,-0.0026225 0.00137152,-0.0070954 0.00137152,-0.013422z"/>
   </g>
   <g>
    <path id="_89923152" class="fil0" d="M0.546134 0.116732c0,0.00760361 -0.00291244,0.0131614 -0.0087308,0.0167384 -0.00475959,0.00293198 -0.0111709,0.00441427 -0.0192306,0.00441427 -0.00759384,0 -0.0138162,-0.00130962 -0.0186702,-0.00395492l0.00207845 -0.0106887c0.00528409,0.0027919 0.0103434,0.00422206 0.0151975,0.00422206 0.00320564,0 0.00604966,-0.000534273 0.00853208,-0.00157676 0.0032317,-0.00135197 0.00485406,-0.00348255 0.00485406,-0.00633634 0,-0.00298085 -0.001681,-0.00536879 -0.00506908,-0.00712798 -0.00084376,-0.000439798 -0.00385393,-0.0014497 -0.00895558,-0.00304275 -0.00533621,-0.00165494 -0.00918689,-0.00403311 -0.0115683,-0.00711169 -0.00245635,-0.00321541 -0.00366172,-0.00755149 -0.00366172,-0.0130343 0,-0.00633634 0.0024987,-0.011135 0.00749937,-0.0144188 0.00422206,-0.00275932 0.00967881,-0.00414713 0.0163442,-0.00414713 0.00687713,0 0.0127835,0.00125098 0.0176864,0.00374968l-0.00152463 0.00967881c-0.00380832,-0.00211103 -0.00890346,-0.00315351 -0.0152659,-0.00315351 -0.00272349,0 -0.00507559,0.000423509 -0.00702373,0.00127704 -0.00272349,0.00117279 -0.00408523,0.00289615 -0.00408523,0.00518961 0,0.00257689 0.00161911,0.00454132 0.00485406,0.00589655 0.000198723,0.000110764 0.00297434,0.000948008 0.00819001,0.0024987 0.00625816,0.00187973 0.0107311,0.00417319 0.0134643,0.00691297 0.00336852,0.00336852 0.00508536,0.00804015 0.00508536,0.0140149z"/>
    <path id="_89919816" class="fil0" d="M0.616987 0.10488c0,0.00867868 -0.00161911,0.0159793 -0.00485406,0.0219019 -0.00403311,0.00733648 -0.00990359,0.0109884 -0.0176799,0.0109884 -0.00806947,0 -0.014282,-0.0032317 -0.0186865,-0.00977328l0 0.0276356 -0.0178167 -3.25776e-006 0 -0.0838059 0.0163865 0 0.00110438 0.00857768c0.00184389,-0.00283425 0.00443055,-0.00510165 0.00769809,-0.00683478 0.00330989,-0.00173964 0.00664583,-0.00261272 0.010086,-0.00261272 0.0158555,-9.77328e-006 0.0237621,0.0113175 0.0237621,0.0339263zm-0.0186637 -0.000224786c0,-0.00635263 -0.000439798,-0.0108516 -0.00136174,-0.0134546 -0.001681,-0.00467163 -0.00506908,-0.00699767 -0.0101544,-0.00699767 -0.00481823,0 -0.00802387,0.00237165 -0.00969835,0.00711169 -0.000974071,0.00284403 -0.00147251,0.00727458 -0.00147251,0.0133438 0,0.00603337 0.000498437,0.0104639 0.00147251,0.0132917 0.00167123,0.00475959 0.00488013,0.00711821 0.00969835,0.00711821 0.00508536,0 0.00846366,-0.00233581 0.0101544,-0.00699115 0.000925204,-0.0026225 0.00136174,-0.0070954 0.00136174,-0.013422z"/>
    <path id="_89919720" class="fil0" d="M0.682667 0.136409l-0.0160771 0 -0.00110438 -0.00851579c-0.00161911,0.00298085 -0.00427418,0.00534273 -0.00795545,0.00701722 -0.00327405,0.00149857 -0.00677614,0.00225111 -0.0105063,0.00225111 -0.014396,0 -0.021599,-0.00742118 -0.021599,-0.022257 0,-0.00707586 0.00242052,-0.0126531 0.00722246,-0.0167905 0.0045348,-0.00391257 0.0104053,-0.00586071 0.017618,-0.00586071 0.00625816,0 0.0112751,0.00184389 0.0149987,0.00552516l0 -0.00855162c0,-0.0052678 -0.00386045,-0.0079131 -0.0116009,-0.0079131 -0.00682827,0 -0.0127835,0.00134546 -0.0178167,0.00403311l-0.00160282 -0.0101544c0.00752543,-0.00317957 0.0154907,-0.00475959 0.0238859,-0.00475959 0.0163344,0 0.0245309,0.00788704 0.0245309,0.0236448l-3.25776e-006 0.0423313 9.77328e-006 0zm-0.0173932 -0.022547c0,-0.00850601 -0.00359331,-0.0127574 -0.0107474,-0.0127574 -0.00736254,0 -0.011034,0.00428396 -0.011034,0.0128616 0,0.0078512 0.00368127,0.0117735 0.011034,0.0117735 0.00715079,-3.25776e-006 0.0107474,-0.00395818 0.0107474,-0.0118778z"/>
    <path id="_89919576" class="fil0" d="M0.746692 0.132702c-0.00190579,0.00123143 -0.00485406,0.00243029 -0.00877315,0.00350861 -0.00390606,0.00113696 -0.00717033,0.00167123 -0.00973093,0.00167123 -0.0227978,0 -0.0341772,-0.0113272 -0.0341772,-0.0339784 0,-0.0106366 0.00294827,-0.0189276 0.00888717,-0.0248763 0.00591284,-0.0059389 0.0141973,-0.00891975 0.0248502,-0.00891975 0.00780885,0 0.0138422,0.00149205 0.0181197,0.00447291l-0.00164517 0.0108255c-0.00346626,-0.0027072 -0.0080597,-0.00408523 -0.0137901,-0.00408523 -0.0113077,0 -0.0169273,0.00764596 -0.0169273,0.0229281 0,0.0145166 0.00496483,0.0217456 0.0148945,0.0217456 0.0023521,0 0.00523196,-0.000413736 0.0086461,-0.0012575 0.00341413,-0.000869822 0.00592261,-0.00177548 0.00754172,-0.00274955l0.00210451 0.0107148z"/>
    <path id="_89919648" class="fil0" d="M0.813639 0.107578l-0.0420023 0c0,0.0126629 0.00567176,0.0189895 0.0170055,0.0189895 0.00595519,0 0.0122655,-0.00150834 0.0189374,-0.00456087l0.0027919 0.00969835c-0.00734299,0.00413736 -0.0156112,0.00620603 -0.0248144,0.00620603 -0.0103695,0 -0.0183249,-0.00303298 -0.0238598,-0.0090859 -0.00533621,-0.00580207 -0.00802387,-0.0139725 -0.00802387,-0.0244462 0,-0.0102391 0.00256712,-0.0183933 0.00765574,-0.0244788 0.00543069,-0.00649923 0.0131972,-0.00977328 0.0232311,-0.00977328 0.00973093,0 0.0170576,0.00286031 0.0220583,0.00856791 0.00468792,0.0054144 0.00701722,0.0130343 0.00701722,0.0228662l-3.25776e-006 0.00601708 6.51552e-006 0zm-0.0166439 -0.00929439c-0.00065481,-0.0119299 -0.00480194,-0.0178851 -0.0124218,-0.0178851 -0.00794568,0 -0.0121873,0.00595519 -0.0127476,0.0178851l0.0251695 0z"/>
   </g>
   <g>
    <path id="_89919552" class="fil2" d="M0.575614 0.0342782c-0.0720519,-0.020664 -0.0905136,-0.0165006 -0.108624,-0.0012184 -0.0333236,0.0281243 -0.0104476,0.0945467 0.0508797,0.147909 0.0613534,0.0533458 0.138566,0.0739219 0.171873,0.0457943 0.0245407,-0.0206966 0.00959411,-0.0639303 0.0109037,-0.0652236 0.0122915,0.0333562 0.00919666,0.0631908 -0.0115488,0.0803429 -0.0395134,0.0326591 -0.130851,0.00909241 -0.203333,-0.0525021 -0.0724819,-0.0615847 -0.0993487,-0.138439 -0.059819,-0.171088 0.0267104,-0.0220648 0.0966936,-0.0161976 0.14929,0.0130245l0 0c-0.00185367,0.00143993 -0.000827471,-0.00298085 -0.00269091,-0.00132591l-0.0193087 -0.00587049m0.0223776 0.0101577l0 0 0 0z"/>
    <path id="_89919456" class="fil3" d="M0.578148 0.0342782c-0.0756126,-0.0303004 -0.0921686,-0.0227131 -0.110392,-0.00755149 -0.0335549,0.0278506 -0.0112132,0.094462 0.0497265,0.1483 0.0609234,0.0538378 0.137947,0.075023 0.171495,0.0471756 0.0247134,-0.0205239 0.0100925,-0.0638717 0.0114119,-0.0651552 0.0120081,0.0334507 0.00874057,0.0632397 -0.0122068,0.0802549 -0.0397349,0.0323561 -0.130913,0.00804993 -0.202893,-0.0540886 -0.0719998,-0.0621483 -0.0982378,-0.13923 -0.0584833,-0.17157 0.0269091,-0.0218433 0.104418,-0.0114054 0.15677,0.0182369l-0.00165494 0.00123143c-0.00185041,0.00141387 -0.00191231,0.00154418 -0.00377249,0.00316654l-0.026642 -0.0120928m0.026642 0.0120928l0 0 0 0z"/>
   </g>
  </g>
 </g>
</svg>
