<svg viewBox="0 0 698 230" fill="none" xmlns="http://www.w3.org/2000/svg">
    <path fill-rule="evenodd" clip-rule="evenodd" d="M106.821 42C103.718 42.0028 100.672 42.8316 97.9949 44.4014L50.8266 71.9571C48.1333 73.5418 45.9015 75.8037 44.3531 78.5181C42.8047 81.2325 41.9934 84.3048 42 87.4299V142.565C41.9944 145.689 42.806 148.76 44.3544 151.474C45.9028 154.187 48.1341 156.448 50.8266 158.032L97.9949 185.606C100.673 187.175 103.72 188.002 106.823 188.002C109.926 188.002 112.973 187.175 115.651 185.606L162.816 158.038C165.509 156.453 167.74 154.192 169.289 151.479C170.837 148.766 171.649 145.694 171.643 142.57V87.4299C171.649 84.3057 170.837 81.2343 169.289 78.5209C167.74 75.8075 165.509 73.5464 162.816 71.9624L115.648 44.4014C112.971 42.8316 109.925 42.0028 106.821 42ZM106.821 49.8858C108.554 49.8871 110.256 50.3485 111.752 51.2228L158.918 78.7864C160.422 79.6745 161.668 80.9398 162.533 82.4571C163.398 83.9744 163.851 85.6912 163.849 87.4377V142.565C163.851 144.311 163.398 146.028 162.533 147.546C161.668 149.063 160.422 150.328 158.918 151.216L111.752 178.777C110.256 179.653 108.554 180.115 106.82 180.115C105.086 180.115 103.384 179.653 101.888 178.777L54.7195 151.208C53.2157 150.32 51.9698 149.055 51.1049 147.538C50.2401 146.02 49.7863 144.304 49.7885 142.557V87.4299C49.7863 85.6834 50.2401 83.9665 51.1049 82.4492C51.9698 80.9319 53.2157 79.6666 54.7195 78.7785L101.89 51.2176C103.387 50.3432 105.088 49.8818 106.821 49.8806V49.8858Z" fill="black"></path>
    <path fill-rule="evenodd" clip-rule="evenodd" d="M137.346 82.6033L125.064 104.541L118.34 100.54L125.549 87.6525H97.6566C95.9212 87.6828 94.2092 88.0582 92.6204 88.7568C91.0315 89.4554 89.5976 90.4631 88.402 91.7214C87.2065 92.9797 86.2733 94.4633 85.6569 96.0859C85.0404 97.7084 84.753 99.4374 84.8113 101.172C84.8738 103.334 85.4837 105.446 86.5841 107.308C87.6844 109.17 89.2392 110.723 91.1029 111.821L110.145 123.17C111.044 123.72 111.695 124.597 111.96 125.618C112.225 126.638 112.084 127.721 111.566 128.639C111.321 129.089 110.987 129.486 110.585 129.805C110.183 130.124 109.721 130.359 109.227 130.496C108.732 130.632 108.215 130.668 107.706 130.601C107.198 130.534 106.708 130.365 106.266 130.104L95.4021 123.629L88.6885 119.628L86.9714 118.611C83.9358 116.789 81.4311 114.203 79.7073 111.111C77.9455 107.927 77.0325 104.344 77.0561 100.706C77.0797 97.0679 78.0392 93.497 79.8422 90.337C81.6452 87.1769 84.231 84.534 87.351 82.6626C90.4709 80.7912 94.0199 79.7542 97.6566 79.6514H135.686C136.029 79.6578 136.363 79.7536 136.657 79.9292C136.951 80.1048 137.193 80.3541 137.361 80.6524C137.529 80.9507 137.616 81.2876 137.613 81.6298C137.61 81.9721 137.518 82.3076 137.346 82.6033Z" fill="black"></path>
    <path fill-rule="evenodd" clip-rule="evenodd" d="M137.609 128.524C137.69 134.071 135.565 139.424 131.702 143.405C127.839 147.387 122.553 149.672 117.006 149.759H78.9581C78.6187 149.749 78.2877 149.651 77.9973 149.475C77.7069 149.299 77.467 149.051 77.3009 148.755C77.1349 148.459 77.0484 148.124 77.0498 147.785C77.0513 147.445 77.1406 147.112 77.3092 146.817L89.5908 124.877L96.3149 128.878L89.1111 141.768H116.993C118.729 141.739 120.441 141.364 122.031 140.666C123.62 139.968 125.054 138.96 126.25 137.701C127.446 136.443 128.379 134.959 128.995 133.336C129.611 131.713 129.898 129.983 129.838 128.248C129.779 126.087 129.172 123.976 128.074 122.113C126.976 120.251 125.423 118.697 123.56 117.599L104.507 106.248C103.911 105.889 103.42 105.38 103.08 104.773C102.741 104.166 102.566 103.48 102.572 102.785C102.576 102.083 102.756 101.393 103.097 100.779C103.343 100.327 103.677 99.93 104.08 99.6107C104.483 99.2913 104.946 99.0566 105.442 98.9205C105.938 98.7844 106.456 98.7497 106.966 98.8187C107.475 98.8876 107.966 99.0586 108.408 99.3215L127.697 110.807C130.733 112.622 133.236 115.207 134.953 118.299C136.704 121.422 137.622 124.943 137.619 128.524" fill="black"></path>
    <path fill-rule="evenodd" clip-rule="evenodd" d="M240.339 120.659V71.0712H220V63.3799H270.918L270.132 64.749L269.164 66.4716L266.504 71.0712H248.989V120.659H240.35" fill="black"></path>
    <path fill-rule="evenodd" clip-rule="evenodd" d="M287.233 83.3516C284.068 83.3507 280.983 84.3423 278.411 86.1867C277.086 87.1047 275.956 88.2755 275.086 89.6319C274.215 90.9883 273.622 92.5034 273.34 94.0901L273.256 94.5063H300.318L300.229 94.0848C299.761 91.0113 298.177 88.2178 295.78 86.238C293.383 84.2581 290.34 83.2306 287.233 83.3516ZM286.875 120.656C281.01 120.746 275.347 118.517 271.117 114.454C268.956 112.405 267.253 109.921 266.122 107.165C264.991 104.41 264.456 101.447 264.553 98.4698C264.455 95.4742 264.989 92.4914 266.12 89.7157C267.25 86.94 268.953 84.4335 271.117 82.3594C275.45 78.2251 281.246 75.9771 287.233 76.1079C290.072 76.072 292.89 76.5958 295.526 77.6495C298.162 78.7032 300.564 80.2661 302.595 82.2488C304.627 84.2315 306.248 86.5952 307.365 89.2047C308.482 91.8142 309.074 94.6183 309.107 97.4567V100.192H273.025L273.065 100.577C273.335 104.202 274.979 107.586 277.659 110.041C280.17 112.348 283.465 113.614 286.875 113.583C289.312 113.744 291.749 113.265 293.945 112.195C296.14 111.124 298.018 109.498 299.391 107.478L306.028 111.187C304.457 113.677 302.332 115.77 299.818 117.303C295.896 119.597 291.415 120.758 286.872 120.659L286.875 120.656Z" fill="black"></path>
    <path fill-rule="evenodd" clip-rule="evenodd" d="M318.652 120.659H328.2V57.0156H318.652V120.659Z" fill="black"></path>
    <path fill-rule="evenodd" clip-rule="evenodd" d="M413.416 120.671C407.468 120.854 401.597 119.275 396.543 116.131C394.409 114.789 392.596 112.993 391.235 110.871C389.873 108.749 388.995 106.353 388.663 103.854L398.321 101.89C398.947 105.233 400.867 108.194 403.664 110.129C406.84 112.158 410.558 113.174 414.325 113.042C417.724 113.228 421.095 112.328 423.949 110.472C425.066 109.706 425.976 108.675 426.596 107.471C427.217 106.267 427.529 104.928 427.504 103.573C427.566 102.586 427.413 101.597 427.055 100.675C426.698 99.7521 426.144 98.9182 425.433 98.2304C423.451 96.7439 421.126 95.7798 418.673 95.4267L405.405 92.8088C395.274 90.5548 390.344 85.45 390.344 77.2063C390.287 74.8256 390.802 72.466 391.845 70.3252C392.888 68.1844 394.429 66.3248 396.339 64.9023C400.988 61.5821 406.621 59.9249 412.327 60.198C417.753 60.0267 423.096 61.5662 427.598 64.5987C431.536 67.3247 434.297 71.4397 435.327 76.1173L426.339 77.9C425.756 74.9406 424.072 72.3126 421.627 70.5465C418.869 68.556 415.533 67.5284 412.134 67.6223C408.977 67.4764 405.861 68.3824 403.274 70.1983C402.206 70.9599 401.338 71.9692 400.746 73.1395C400.153 74.3099 399.853 75.6066 399.871 76.9183C399.824 77.8553 399.976 78.7916 400.316 79.666C400.656 80.5403 401.177 81.3329 401.845 81.9918C403.579 83.4074 405.67 84.3193 407.887 84.628L421.058 87.3453C431.235 89.5129 436.395 94.7932 436.395 103.034C436.47 105.52 435.938 107.987 434.847 110.222C433.756 112.457 432.137 114.392 430.13 115.862C425.237 119.254 419.361 120.937 413.414 120.65" fill="black"></path>
    <path fill-rule="evenodd" clip-rule="evenodd" d="M466.72 83.1607C462.681 83.0958 458.778 84.6198 455.852 87.4043C454.364 88.8009 453.19 90.4984 452.409 92.3837C451.627 94.2691 451.256 96.2993 451.32 98.3391C451.256 100.379 451.627 102.409 452.409 104.295C453.19 106.18 454.364 107.877 455.852 109.274C458.789 112.001 462.649 113.517 466.657 113.517C470.665 113.517 474.524 112.001 477.461 109.274C478.96 107.884 480.144 106.188 480.933 104.302C481.721 102.416 482.096 100.383 482.032 98.3391C482.096 96.2948 481.72 94.2607 480.931 92.3739C480.142 90.4871 478.957 88.7915 477.456 87.4017C474.566 84.6442 470.714 83.1228 466.72 83.1607ZM466.72 120.659C460.454 120.81 454.367 118.562 449.702 114.376C447.447 112.37 445.658 109.895 444.459 107.125C443.26 104.355 442.681 101.356 442.762 98.3391C442.677 95.3255 443.255 92.33 444.456 89.5643C445.656 86.7986 447.449 84.3302 449.708 82.3335C454.386 78.1768 460.468 75.9518 466.725 76.1082C472.954 75.9428 479.01 78.1696 483.648 82.3309C485.883 84.3419 487.655 86.8156 488.838 89.58C490.022 92.3444 490.589 95.3333 490.502 98.3391C490.585 101.355 490.011 104.353 488.82 107.125C487.628 109.896 485.847 112.375 483.601 114.389C478.985 118.561 472.945 120.805 466.725 120.659H466.72Z" fill="black"></path>
    <path fill-rule="evenodd" clip-rule="evenodd" d="M500.555 120.659V84.765H493.68V77.9586H500.555V72.4192C500.449 70.3611 500.761 68.303 501.472 66.3685C502.182 64.434 503.276 62.6632 504.688 61.1624C506.155 59.7592 507.892 58.6682 509.793 57.9554C511.693 57.2427 513.719 56.923 515.747 57.0157C518.005 57.0149 520.241 57.4671 522.321 58.3455L518.768 64.6912C517.969 64.5294 517.156 64.4469 516.341 64.4452C515.321 64.4032 514.303 64.5694 513.35 64.9335C512.396 65.2976 511.526 65.852 510.794 66.563C510.072 67.3496 509.514 68.2727 509.155 69.278C508.795 70.2834 508.64 71.3505 508.699 72.4166V77.9324H519.813V84.7389H508.699V120.659H500.555Z" fill="black"></path>
    <path fill-rule="evenodd" clip-rule="evenodd" d="M549.478 120.659C547.49 120.765 545.501 120.469 543.631 119.789C541.76 119.108 540.046 118.057 538.592 116.698C537.18 115.121 536.1 113.277 535.416 111.274C534.731 109.271 534.456 107.152 534.607 105.041V83.6265H525.502V76.82H534.602V63.3799H542.757V76.8279H557.012L553.195 83.6343H542.757V104.428C542.605 106.675 543.308 108.896 544.726 110.645C545.407 111.374 546.238 111.945 547.161 112.32C548.085 112.695 549.079 112.865 550.075 112.818C551.302 112.817 552.521 112.622 553.688 112.24L557.327 118.719C554.886 119.944 552.203 120.606 549.473 120.656" fill="black"></path>
    <path fill-rule="evenodd" clip-rule="evenodd" d="M587.376 83.3516C583.348 83.2291 579.435 84.7112 576.499 87.4721C575.058 88.8892 573.931 90.5922 573.188 92.4715C572.446 94.3507 572.106 96.3646 572.189 98.3834C572.104 100.402 572.443 102.417 573.185 104.297C573.927 106.176 575.056 107.879 576.499 109.295C577.951 110.664 579.66 111.733 581.527 112.44C583.393 113.147 585.381 113.478 587.376 113.415C591.342 113.447 595.167 111.946 598.053 109.227C599.557 107.858 600.747 106.181 601.541 104.309C602.336 102.437 602.716 100.416 602.655 98.3834C602.715 96.3531 602.334 94.3339 601.54 92.4645C600.745 90.595 599.556 88.9196 598.053 87.5533C595.168 84.8291 591.344 83.3239 587.376 83.3516ZM585.819 120.656C582.934 120.697 580.07 120.167 577.391 119.097C574.712 118.027 572.271 116.439 570.207 114.423C568.062 112.352 566.374 109.855 565.251 107.093C564.129 104.33 563.598 101.364 563.691 98.3834C563.606 95.41 564.147 92.4519 565.278 89.7009C566.41 86.9499 568.107 84.4674 570.26 82.4144C572.309 80.3883 574.738 78.7879 577.409 77.7055C580.079 76.6231 582.937 76.0801 585.819 76.108C588.784 75.9757 591.746 76.4405 594.529 77.4748C597.311 78.5091 599.857 80.0918 602.016 82.1291L602.655 82.76V77.3174H611.428V119.465H602.655V114.007L602.016 114.638C599.857 116.675 597.311 118.258 594.529 119.292C591.746 120.326 588.784 120.791 585.819 120.659V120.656Z" fill="black"></path>
    <path fill-rule="evenodd" clip-rule="evenodd" d="M637.318 120.659C632.656 120.803 628.04 119.703 623.945 117.473C622.297 116.575 620.882 115.304 619.813 113.761C618.744 112.218 618.051 110.446 617.79 108.588L626.537 106.834C626.696 107.937 627.105 108.989 627.733 109.91C628.36 110.832 629.189 111.598 630.158 112.151C632.602 113.478 635.358 114.123 638.137 114.017C640.485 114.13 642.816 113.57 644.855 112.402C645.639 111.957 646.29 111.312 646.742 110.533C647.194 109.753 647.431 108.868 647.429 107.967C647.429 105.26 645.279 103.43 641.041 102.53L631.2 100.629C623.131 98.9277 619.206 95.226 619.206 89.3149C619.171 87.463 619.583 85.6299 620.407 83.9711C621.231 82.3123 622.443 80.8766 623.94 79.7858C627.661 77.181 632.145 75.8913 636.682 76.1208C641.086 75.9568 645.437 77.1226 649.17 79.4664C652.184 81.3918 654.362 84.3833 655.267 87.8436L646.994 89.5086C646.57 87.4793 645.365 85.6979 643.64 84.5477C641.49 83.1644 638.967 82.4771 636.412 82.5791C634.217 82.4369 632.037 83.0261 630.213 84.2545C629.532 84.7426 628.979 85.3868 628.599 86.1329C628.219 86.879 628.024 87.7053 628.029 88.5426C628.029 91.1317 629.964 92.8752 633.789 93.7181L644.538 95.9642C647.683 96.4669 650.62 97.8564 653.002 99.9696C653.977 100.899 654.747 102.021 655.262 103.266C655.777 104.51 656.026 105.849 655.992 107.195C656.064 109.139 655.639 111.069 654.758 112.803C653.876 114.537 652.566 116.017 650.953 117.104C646.886 119.654 642.134 120.896 637.339 120.661" fill="black"></path>
    <path fill-rule="evenodd" clip-rule="evenodd" d="M360.425 83.3516C357.26 83.3508 354.174 84.3424 351.602 86.1868C350.277 87.1047 349.147 88.2756 348.277 89.6319C347.407 90.9883 346.813 92.5035 346.531 94.0901L346.45 94.5064H373.51L373.421 94.0849C372.952 91.0116 371.368 88.2185 368.971 86.2387C366.574 84.2589 363.532 83.2312 360.425 83.3516ZM360.066 120.656C354.201 120.746 348.538 118.518 344.308 114.455C342.147 112.405 340.445 109.921 339.314 107.165C338.182 104.41 337.648 101.447 337.745 98.4698C337.646 95.4742 338.18 92.4913 339.311 89.7156C340.441 86.9398 342.144 84.4333 344.308 82.3595C348.641 78.2247 354.437 75.9766 360.425 76.108C363.263 76.072 366.081 76.5959 368.717 77.6496C371.353 78.7033 373.755 80.2661 375.787 82.2489C377.818 84.2316 379.439 86.5953 380.556 89.2047C381.674 91.8142 382.266 94.6183 382.298 97.4567V100.192H346.217L346.256 100.577C346.526 104.201 348.168 107.586 350.848 110.041C353.359 112.348 356.654 113.614 360.064 113.583C362.501 113.744 364.938 113.266 367.134 112.195C369.329 111.124 371.207 109.498 372.58 107.478L379.22 111.182C377.648 113.672 375.523 115.765 373.01 117.298C369.088 119.591 364.608 120.755 360.066 120.656Z" fill="black"></path>
    <path d="M259.66 142.798V154.507H243.776V142.798H240.528V170.21H243.776V157.6H259.66V170.21H262.907V142.798H259.66Z" fill="black"></path>
    <path d="M280.162 148.241C273.746 148.241 269.168 152.979 269.168 159.519C269.168 166.098 273.824 170.64 280.201 170.64C284.7 170.64 288.613 168.408 290.412 163.827H287.048C285.757 166.333 283.292 167.586 280.319 167.586C275.976 167.586 272.807 164.884 272.494 160.42H290.921C291.195 153.332 286.852 148.241 280.162 148.241ZM280.162 151.295C284.035 151.295 286.696 153.763 287.4 157.365H272.65C273.394 153.841 276.211 151.295 280.162 151.295Z" fill="black"></path>
    <path d="M296.566 170.21H299.813V140.057H296.566V170.21Z" fill="black"></path>
    <path d="M330.659 148.241C326.982 148.241 324.634 150.199 323.265 153.175C322.404 150.003 320.057 148.241 316.536 148.241C313.093 148.241 310.941 149.964 309.533 152.744V148.672H306.286V170.21H309.533V159.167C309.533 154.82 311.528 151.335 315.558 151.335C318.805 151.335 320.409 153.175 320.409 156.817V170.21H323.696L323.656 159.167C323.656 154.82 325.652 151.335 329.721 151.335C332.929 151.335 334.572 153.175 334.572 156.817V170.21H337.819V156.23C337.819 151.139 335.198 148.241 330.659 148.241Z" fill="black"></path>
    <path d="M354.338 148.241C347.921 148.241 343.344 152.979 343.344 159.519C343.344 166.098 348 170.64 354.377 170.64C358.876 170.64 362.788 168.408 364.588 163.827H361.223C359.932 166.333 357.468 167.586 354.494 167.586C350.151 167.586 346.982 164.884 346.669 160.42H365.097C365.37 153.332 361.028 148.241 354.338 148.241ZM354.338 151.295C358.211 151.295 360.871 153.763 361.576 157.365H346.826C347.569 153.841 350.386 151.295 354.338 151.295Z" fill="black"></path>
    <path d="M379.739 170.64C384.591 170.64 388.62 168.487 388.62 164.062C388.62 160.028 385.295 159.167 379.779 157.796C375.436 156.7 373.714 156.23 373.714 154.507C373.714 152.666 375.749 151.335 379.231 151.335C382.126 151.335 384.2 152.235 385.021 154.428H388.307C387.447 150.551 384.2 148.241 379.153 148.241C374.067 148.241 370.428 150.591 370.428 154.742C370.428 158.266 373.01 159.323 378.957 160.811C382.908 161.79 385.295 162.221 385.295 164.336C385.295 166.411 382.948 167.547 379.739 167.547C375.749 167.547 373.519 166.489 372.658 163.474H369.333C370.193 168.017 374.106 170.64 379.739 170.64Z" fill="black"></path>
    <path d="M418.55 155.955V158.736H429.817C429.348 164.179 425.24 167.625 419.841 167.625C413.425 167.625 409.082 162.808 409.082 156.582C409.082 150.16 413.659 145.461 419.841 145.461C424.184 145.461 427.744 147.81 429.387 151.413H432.869C430.991 145.931 426.062 142.367 419.88 142.367C411.86 142.367 405.796 148.359 405.796 156.504C405.796 164.649 411.821 170.64 419.645 170.64C424.81 170.64 428.878 167.978 430.248 163.787V170.21H433.104V155.955H418.55Z" fill="black"></path>
    <path d="M450.901 148.241C447.106 148.241 444.524 150.277 443.232 153.488V148.672H439.985V170.21H443.232V160.028C443.232 154.507 446.362 151.57 450.862 151.57C451.409 151.57 451.879 151.609 452.231 151.648V148.319C451.918 148.28 451.409 148.241 450.901 148.241Z" fill="black"></path>
    <path d="M466.758 148.241C460.655 148.241 455.686 152.979 455.686 159.441C455.686 165.863 460.577 170.64 466.758 170.64C472.979 170.64 477.869 165.902 477.869 159.441C477.869 152.979 472.901 148.241 466.758 148.241ZM466.758 151.335C471.101 151.335 474.583 154.702 474.583 159.441C474.583 164.179 471.14 167.547 466.758 167.547C462.415 167.547 458.973 164.179 458.973 159.441C458.973 154.663 462.455 151.335 466.758 151.335Z" fill="black"></path>
    <path d="M498.641 148.672V159.715C498.641 164.492 496.176 167.547 491.911 167.547C488.39 167.547 486.591 165.55 486.591 161.712V148.672H483.343V162.339C483.343 167.586 486.199 170.64 490.972 170.64C494.689 170.64 497.193 168.761 498.641 165.941V170.21H501.888V148.672H498.641Z" fill="black"></path>
    <path d="M520.09 148.241C516.374 148.241 513.439 150.16 511.796 153.097V148.672H508.549V180H511.796V165.863C513.439 168.761 516.335 170.64 520.051 170.64C525.92 170.64 530.145 165.941 530.145 159.441C530.145 152.901 525.92 148.241 520.09 148.241ZM519.464 167.547C515.083 167.547 511.757 164.179 511.757 159.441C511.757 154.702 515.083 151.335 519.464 151.335C523.807 151.335 526.859 154.742 526.859 159.441C526.859 164.179 523.807 167.547 519.464 167.547Z" fill="black"></path>
    <path d="M259.66 142.798V154.507H243.776V142.798H240.528V170.21H243.776V157.6H259.66V170.21H262.907V142.798H259.66Z" stroke="black"></path>
    <path d="M280.162 148.241C273.746 148.241 269.168 152.979 269.168 159.519C269.168 166.098 273.824 170.64 280.201 170.64C284.7 170.64 288.613 168.408 290.412 163.827H287.048C285.757 166.333 283.292 167.586 280.319 167.586C275.976 167.586 272.807 164.884 272.494 160.42H290.921C291.195 153.332 286.852 148.241 280.162 148.241ZM280.162 151.295C284.035 151.295 286.696 153.763 287.4 157.365H272.65C273.394 153.841 276.211 151.295 280.162 151.295Z" stroke="black"></path>
    <path d="M296.566 170.21H299.813V140.057H296.566V170.21Z" stroke="black"></path>
    <path d="M330.659 148.241C326.982 148.241 324.634 150.199 323.265 153.175C322.404 150.003 320.057 148.241 316.536 148.241C313.093 148.241 310.941 149.964 309.533 152.744V148.672H306.286V170.21H309.533V159.167C309.533 154.82 311.528 151.335 315.558 151.335C318.805 151.335 320.409 153.175 320.409 156.817V170.21H323.696L323.656 159.167C323.656 154.82 325.652 151.335 329.721 151.335C332.929 151.335 334.572 153.175 334.572 156.817V170.21H337.819V156.23C337.819 151.139 335.198 148.241 330.659 148.241Z" stroke="black"></path>
    <path d="M354.338 148.241C347.921 148.241 343.344 152.979 343.344 159.519C343.344 166.098 348 170.64 354.377 170.64C358.876 170.64 362.788 168.408 364.588 163.827H361.223C359.932 166.333 357.468 167.586 354.494 167.586C350.151 167.586 346.982 164.884 346.669 160.42H365.097C365.37 153.332 361.028 148.241 354.338 148.241ZM354.338 151.295C358.211 151.295 360.871 153.763 361.576 157.365H346.826C347.569 153.841 350.386 151.295 354.338 151.295Z" stroke="black"></path>
    <path d="M379.739 170.64C384.591 170.64 388.62 168.487 388.62 164.062C388.62 160.028 385.295 159.167 379.779 157.796C375.436 156.7 373.714 156.23 373.714 154.507C373.714 152.666 375.749 151.335 379.231 151.335C382.126 151.335 384.2 152.235 385.021 154.428H388.307C387.447 150.551 384.2 148.241 379.153 148.241C374.067 148.241 370.428 150.591 370.428 154.742C370.428 158.266 373.01 159.323 378.957 160.811C382.908 161.79 385.295 162.221 385.295 164.336C385.295 166.411 382.948 167.547 379.739 167.547C375.749 167.547 373.519 166.489 372.658 163.474H369.333C370.193 168.017 374.106 170.64 379.739 170.64Z" stroke="black"></path>
    <path d="M418.55 155.955V158.736H429.817C429.348 164.179 425.24 167.625 419.841 167.625C413.425 167.625 409.082 162.808 409.082 156.582C409.082 150.16 413.659 145.461 419.841 145.461C424.184 145.461 427.744 147.81 429.387 151.413H432.869C430.991 145.931 426.062 142.367 419.88 142.367C411.86 142.367 405.796 148.359 405.796 156.504C405.796 164.649 411.821 170.64 419.645 170.64C424.81 170.64 428.878 167.978 430.248 163.787V170.21H433.104V155.955H418.55Z" stroke="black"></path>
    <path d="M450.901 148.241C447.106 148.241 444.524 150.277 443.232 153.488V148.672H439.985V170.21H443.232V160.028C443.232 154.507 446.362 151.57 450.862 151.57C451.409 151.57 451.879 151.609 452.231 151.648V148.319C451.918 148.28 451.409 148.241 450.901 148.241Z" stroke="black"></path>
    <path d="M466.758 148.241C460.655 148.241 455.686 152.979 455.686 159.441C455.686 165.863 460.577 170.64 466.758 170.64C472.979 170.64 477.869 165.902 477.869 159.441C477.869 152.979 472.901 148.241 466.758 148.241ZM466.758 151.335C471.101 151.335 474.583 154.702 474.583 159.441C474.583 164.179 471.14 167.547 466.758 167.547C462.415 167.547 458.973 164.179 458.973 159.441C458.973 154.663 462.455 151.335 466.758 151.335Z" stroke="black"></path>
    <path d="M498.641 148.672V159.715C498.641 164.492 496.176 167.547 491.911 167.547C488.39 167.547 486.591 165.55 486.591 161.712V148.672H483.343V162.339C483.343 167.586 486.199 170.64 490.972 170.64C494.689 170.64 497.193 168.761 498.641 165.941V170.21H501.888V148.672H498.641Z" stroke="black"></path>
    <path d="M520.09 148.241C516.374 148.241 513.439 150.16 511.796 153.097V148.672H508.549V180H511.796V165.863C513.439 168.761 516.335 170.64 520.051 170.64C525.92 170.64 530.145 165.941 530.145 159.441C530.145 152.901 525.92 148.241 520.09 148.241ZM519.464 167.547C515.083 167.547 511.757 164.179 511.757 159.441C511.757 154.702 515.083 151.335 519.464 151.335C523.807 151.335 526.859 154.742 526.859 159.441C526.859 164.179 523.807 167.547 519.464 167.547Z" stroke="black"></path>
</svg>